<svg width="206" height="64" viewBox="0 0 206 64" fill="none" xmlns="http://www.w3.org/2000/svg">
<path d="M95.4375 52H86.9531L76.1953 37.1406C75.3984 37.1719 74.75 37.1875 74.25 37.1875C74.0469 37.1875 73.8281 37.1875 73.5938 37.1875C73.3594 37.1719 73.1172 37.1562 72.8672 37.1406V46.375C72.8672 48.375 73.0859 49.6172 73.5234 50.1016C74.1172 50.7891 75.0078 51.1328 76.1953 51.1328H77.4375V52H63.8203V51.1328H65.0156C66.3594 51.1328 67.3203 50.6953 67.8984 49.8203C68.2266 49.3359 68.3906 48.1875 68.3906 46.375V25.8438C68.3906 23.8438 68.1719 22.6016 67.7344 22.1172C67.125 21.4297 66.2188 21.0859 65.0156 21.0859H63.8203V20.2188H75.3984C78.7734 20.2188 81.2578 20.4688 82.8516 20.9688C84.4609 21.4531 85.8203 22.3594 86.9297 23.6875C88.0547 25 88.6172 26.5703 88.6172 28.3984C88.6172 30.3516 87.9766 32.0469 86.6953 33.4844C85.4297 34.9219 83.4609 35.9375 80.7891 36.5312L87.3516 45.6484C88.8516 47.7422 90.1406 49.1328 91.2188 49.8203C92.2969 50.5078 93.7031 50.9453 95.4375 51.1328V52ZM72.8672 35.6641C73.1641 35.6641 73.4219 35.6719 73.6406 35.6875C73.8594 35.6875 74.0391 35.6875 74.1797 35.6875C77.2109 35.6875 79.4922 35.0312 81.0234 33.7188C82.5703 32.4062 83.3438 30.7344 83.3438 28.7031C83.3438 26.7188 82.7188 25.1094 81.4688 23.875C80.2344 22.625 78.5938 22 76.5469 22C75.6406 22 74.4141 22.1484 72.8672 22.4453V35.6641ZM107.016 29.8984C110.266 29.8984 112.875 31.1328 114.844 33.6016C116.516 35.7109 117.352 38.1328 117.352 40.8672C117.352 42.7891 116.891 44.7344 115.969 46.7031C115.047 48.6719 113.773 50.1562 112.148 51.1562C110.539 52.1562 108.742 52.6562 106.758 52.6562C103.523 52.6562 100.953 51.3672 99.0469 48.7891C97.4375 46.6172 96.6328 44.1797 96.6328 41.4766C96.6328 39.5078 97.1172 37.5547 98.0859 35.6172C99.0703 33.6641 100.359 32.2266 101.953 31.3047C103.547 30.3672 105.234 29.8984 107.016 29.8984ZM106.289 31.4219C105.461 31.4219 104.625 31.6719 103.781 32.1719C102.953 32.6562 102.281 33.5156 101.766 34.75C101.25 35.9844 100.992 37.5703 100.992 39.5078C100.992 42.6328 101.609 45.3281 102.844 47.5938C104.094 49.8594 105.734 50.9922 107.766 50.9922C109.281 50.9922 110.531 50.3672 111.516 49.1172C112.5 47.8672 112.992 45.7188 112.992 42.6719C112.992 38.8594 112.172 35.8594 110.531 33.6719C109.422 32.1719 108.008 31.4219 106.289 31.4219ZM126.891 34.4688C128.453 32.9062 129.375 32.0078 129.656 31.7734C130.359 31.1797 131.117 30.7188 131.93 30.3906C132.742 30.0625 133.547 29.8984 134.344 29.8984C135.688 29.8984 136.844 30.2891 137.812 31.0703C138.781 31.8516 139.43 32.9844 139.758 34.4688C141.367 32.5938 142.727 31.3672 143.836 30.7891C144.945 30.1953 146.086 29.8984 147.258 29.8984C148.398 29.8984 149.406 30.1953 150.281 30.7891C151.172 31.3672 151.875 32.3203 152.391 33.6484C152.734 34.5547 152.906 35.9766 152.906 37.9141V47.1484C152.906 48.4922 153.008 49.4141 153.211 49.9141C153.367 50.2578 153.656 50.5547 154.078 50.8047C154.5 51.0391 155.188 51.1562 156.141 51.1562V52H145.547V51.1562H145.992C146.914 51.1562 147.633 50.9766 148.148 50.6172C148.508 50.3672 148.766 49.9688 148.922 49.4219C148.984 49.1562 149.016 48.3984 149.016 47.1484V37.9141C149.016 36.1641 148.805 34.9297 148.383 34.2109C147.773 33.2109 146.797 32.7109 145.453 32.7109C144.625 32.7109 143.789 32.9219 142.945 33.3438C142.117 33.75 141.109 34.5156 139.922 35.6406L139.875 35.8984L139.922 36.9062V47.1484C139.922 48.6172 140 49.5312 140.156 49.8906C140.328 50.25 140.641 50.5547 141.094 50.8047C141.547 51.0391 142.32 51.1562 143.414 51.1562V52H132.562V51.1562C133.75 51.1562 134.562 51.0156 135 50.7344C135.453 50.4531 135.766 50.0312 135.938 49.4688C136.016 49.2031 136.055 48.4297 136.055 47.1484V37.9141C136.055 36.1641 135.797 34.9062 135.281 34.1406C134.594 33.1406 133.633 32.6406 132.398 32.6406C131.555 32.6406 130.719 32.8672 129.891 33.3203C128.594 34.0078 127.594 34.7812 126.891 35.6406V47.1484C126.891 48.5547 126.984 49.4688 127.172 49.8906C127.375 50.3125 127.664 50.6328 128.039 50.8516C128.43 51.0547 129.211 51.1562 130.383 51.1562V52H119.766V51.1562C120.75 51.1562 121.438 51.0547 121.828 50.8516C122.219 50.6328 122.516 50.2969 122.719 49.8438C122.922 49.375 123.023 48.4766 123.023 47.1484V38.9453C123.023 36.5859 122.953 35.0625 122.812 34.375C122.703 33.8594 122.531 33.5078 122.297 33.3203C122.062 33.1172 121.742 33.0156 121.336 33.0156C120.898 33.0156 120.375 33.1328 119.766 33.3672L119.414 32.5234L125.883 29.8984H126.891V34.4688ZM170.039 48.9062C167.836 50.6094 166.453 51.5938 165.891 51.8594C165.047 52.25 164.148 52.4453 163.195 52.4453C161.711 52.4453 160.484 51.9375 159.516 50.9219C158.562 49.9062 158.086 48.5703 158.086 46.9141C158.086 45.8672 158.32 44.9609 158.789 44.1953C159.43 43.1328 160.539 42.1328 162.117 41.1953C163.711 40.2578 166.352 39.1172 170.039 37.7734V36.9297C170.039 34.7891 169.695 33.3203 169.008 32.5234C168.336 31.7266 167.352 31.3281 166.055 31.3281C165.07 31.3281 164.289 31.5938 163.711 32.125C163.117 32.6562 162.82 33.2656 162.82 33.9531L162.867 35.3125C162.867 36.0312 162.68 36.5859 162.305 36.9766C161.945 37.3672 161.469 37.5625 160.875 37.5625C160.297 37.5625 159.82 37.3594 159.445 36.9531C159.086 36.5469 158.906 35.9922 158.906 35.2891C158.906 33.9453 159.594 32.7109 160.969 31.5859C162.344 30.4609 164.273 29.8984 166.758 29.8984C168.664 29.8984 170.227 30.2188 171.445 30.8594C172.367 31.3438 173.047 32.1016 173.484 33.1328C173.766 33.8047 173.906 35.1797 173.906 37.2578V44.5469C173.906 46.5938 173.945 47.8516 174.023 48.3203C174.102 48.7734 174.227 49.0781 174.398 49.2344C174.586 49.3906 174.797 49.4688 175.031 49.4688C175.281 49.4688 175.5 49.4141 175.688 49.3047C176.016 49.1016 176.648 48.5312 177.586 47.5938V48.9062C175.836 51.25 174.164 52.4219 172.57 52.4219C171.805 52.4219 171.195 52.1562 170.742 51.625C170.289 51.0938 170.055 50.1875 170.039 48.9062ZM170.039 47.3828V39.2031C167.68 40.1406 166.156 40.8047 165.469 41.1953C164.234 41.8828 163.352 42.6016 162.82 43.3516C162.289 44.1016 162.023 44.9219 162.023 45.8125C162.023 46.9375 162.359 47.875 163.031 48.625C163.703 49.3594 164.477 49.7266 165.352 49.7266C166.539 49.7266 168.102 48.9453 170.039 47.3828ZM185.461 34.4453C187.977 31.4141 190.375 29.8984 192.656 29.8984C193.828 29.8984 194.836 30.1953 195.68 30.7891C196.523 31.3672 197.195 32.3281 197.695 33.6719C198.039 34.6094 198.211 36.0469 198.211 37.9844V47.1484C198.211 48.5078 198.32 49.4297 198.539 49.9141C198.711 50.3047 198.984 50.6094 199.359 50.8281C199.75 51.0469 200.461 51.1562 201.492 51.1562V52H190.875V51.1562H191.32C192.32 51.1562 193.016 51.0078 193.406 50.7109C193.812 50.3984 194.094 49.9453 194.25 49.3516C194.312 49.1172 194.344 48.3828 194.344 47.1484V38.3594C194.344 36.4062 194.086 34.9922 193.57 34.1172C193.07 33.2266 192.219 32.7812 191.016 32.7812C189.156 32.7812 187.305 33.7969 185.461 35.8281V47.1484C185.461 48.6016 185.547 49.5 185.719 49.8438C185.938 50.2969 186.234 50.6328 186.609 50.8516C187 51.0547 187.781 51.1562 188.953 51.1562V52H178.336V51.1562H178.805C179.898 51.1562 180.633 50.8828 181.008 50.3359C181.398 49.7734 181.594 48.7109 181.594 47.1484V39.1797C181.594 36.6016 181.531 35.0312 181.406 34.4688C181.297 33.9062 181.117 33.5234 180.867 33.3203C180.633 33.1172 180.312 33.0156 179.906 33.0156C179.469 33.0156 178.945 33.1328 178.336 33.3672L177.984 32.5234L184.453 29.8984H185.461V34.4453Z" fill="#BB0505"/>
<path d="M18.5156 7.8125L18.75 12.7812H18.1562C18.0417 11.9062 17.8854 11.2812 17.6875 10.9062C17.3646 10.3021 16.9323 9.85938 16.3906 9.57812C15.8594 9.28646 15.1562 9.14062 14.2812 9.14062H11.2969V25.3281C11.2969 26.6302 11.4375 27.4427 11.7188 27.7656C12.1146 28.2031 12.724 28.4219 13.5469 28.4219H14.2812V29H5.29688V28.4219H6.04688C6.94271 28.4219 7.57812 28.151 7.95312 27.6094C8.18229 27.276 8.29688 26.5156 8.29688 25.3281V9.14062H5.75C4.76042 9.14062 4.05729 9.21354 3.64062 9.35938C3.09896 9.55729 2.63542 9.9375 2.25 10.5C1.86458 11.0625 1.63542 11.8229 1.5625 12.7812H0.96875L1.21875 7.8125H18.5156ZM23.0781 6.78125C23.5156 6.78125 23.8854 6.9375 24.1875 7.25C24.5 7.55208 24.6562 7.92188 24.6562 8.35938C24.6562 8.79688 24.5 9.17188 24.1875 9.48438C23.8854 9.79688 23.5156 9.95312 23.0781 9.95312C22.6406 9.95312 22.2656 9.79688 21.9531 9.48438C21.6406 9.17188 21.4844 8.79688 21.4844 8.35938C21.4844 7.92188 21.6354 7.55208 21.9375 7.25C22.25 6.9375 22.6302 6.78125 23.0781 6.78125ZM24.375 14.2656V25.7656C24.375 26.6615 24.4375 27.2604 24.5625 27.5625C24.6979 27.8542 24.8906 28.0729 25.1406 28.2188C25.401 28.3646 25.8698 28.4375 26.5469 28.4375V29H19.5938V28.4375C20.2917 28.4375 20.7604 28.3698 21 28.2344C21.2396 28.099 21.4271 27.875 21.5625 27.5625C21.7083 27.25 21.7812 26.651 21.7812 25.7656V20.25C21.7812 18.6979 21.7344 17.6927 21.6406 17.2344C21.5677 16.901 21.4531 16.6719 21.2969 16.5469C21.1406 16.4115 20.9271 16.3438 20.6562 16.3438C20.3646 16.3438 20.0104 16.4219 19.5938 16.5781L19.375 16.0156L23.6875 14.2656H24.375ZM32.5938 17.3125C33.6354 16.2708 34.25 15.6719 34.4375 15.5156C34.9062 15.1198 35.4115 14.8125 35.9531 14.5938C36.4948 14.375 37.0312 14.2656 37.5625 14.2656C38.4583 14.2656 39.2292 14.526 39.875 15.0469C40.5208 15.5677 40.9531 16.3229 41.1719 17.3125C42.2448 16.0625 43.151 15.2448 43.8906 14.8594C44.6302 14.4635 45.3906 14.2656 46.1719 14.2656C46.9323 14.2656 47.6042 14.4635 48.1875 14.8594C48.7812 15.2448 49.25 15.8802 49.5938 16.7656C49.8229 17.3698 49.9375 18.3177 49.9375 19.6094V25.7656C49.9375 26.6615 50.0052 27.276 50.1406 27.6094C50.2448 27.8385 50.4375 28.0365 50.7188 28.2031C51 28.3594 51.4583 28.4375 52.0938 28.4375V29H45.0312V28.4375H45.3281C45.9427 28.4375 46.4219 28.3177 46.7656 28.0781C47.0052 27.9115 47.1771 27.6458 47.2812 27.2812C47.3229 27.1042 47.3438 26.599 47.3438 25.7656V19.6094C47.3438 18.4427 47.2031 17.6198 46.9219 17.1406C46.5156 16.474 45.8646 16.1406 44.9688 16.1406C44.4167 16.1406 43.8594 16.2812 43.2969 16.5625C42.7448 16.8333 42.0729 17.3438 41.2812 18.0938L41.25 18.2656L41.2812 18.9375V25.7656C41.2812 26.7448 41.3333 27.3542 41.4375 27.5938C41.5521 27.8333 41.7604 28.0365 42.0625 28.2031C42.3646 28.3594 42.8802 28.4375 43.6094 28.4375V29H36.375V28.4375C37.1667 28.4375 37.7083 28.3438 38 28.1562C38.3021 27.9688 38.5104 27.6875 38.625 27.3125C38.6771 27.1354 38.7031 26.6198 38.7031 25.7656V19.6094C38.7031 18.4427 38.5312 17.6042 38.1875 17.0938C37.7292 16.4271 37.0885 16.0938 36.2656 16.0938C35.7031 16.0938 35.1458 16.2448 34.5938 16.5469C33.7292 17.0052 33.0625 17.5208 32.5938 18.0938V25.7656C32.5938 26.7031 32.6562 27.3125 32.7812 27.5938C32.9167 27.875 33.1094 28.0885 33.3594 28.2344C33.6198 28.3698 34.1406 28.4375 34.9219 28.4375V29H27.8438V28.4375C28.5 28.4375 28.9583 28.3698 29.2188 28.2344C29.4792 28.0885 29.6771 27.8646 29.8125 27.5625C29.9479 27.25 30.0156 26.651 30.0156 25.7656V20.2969C30.0156 18.724 29.9688 17.7083 29.875 17.25C29.8021 16.9062 29.6875 16.6719 29.5312 16.5469C29.375 16.4115 29.1615 16.3438 28.8906 16.3438C28.599 16.3438 28.25 16.4219 27.8438 16.5781L27.6094 16.0156L31.9219 14.2656H32.5938V17.3125ZM55.6562 20.0781C55.6458 22.2031 56.1615 23.8698 57.2031 25.0781C58.2448 26.2865 59.4688 26.8906 60.875 26.8906C61.8125 26.8906 62.625 26.6354 63.3125 26.125C64.0104 25.6042 64.5938 24.7188 65.0625 23.4688L65.5469 23.7812C65.3281 25.2083 64.6927 26.5104 63.6406 27.6875C62.5885 28.8542 61.2708 29.4375 59.6875 29.4375C57.9688 29.4375 56.4948 28.7708 55.2656 27.4375C54.0469 26.0938 53.4375 24.2917 53.4375 22.0312C53.4375 19.5833 54.0625 17.6771 55.3125 16.3125C56.5729 14.9375 58.151 14.25 60.0469 14.25C61.651 14.25 62.9688 14.7812 64 15.8438C65.0312 16.8958 65.5469 18.3073 65.5469 20.0781H55.6562ZM55.6562 19.1719H62.2812C62.2292 18.2552 62.1198 17.6094 61.9531 17.2344C61.6927 16.651 61.3021 16.1927 60.7812 15.8594C60.2708 15.526 59.7344 15.3594 59.1719 15.3594C58.3073 15.3594 57.5312 15.6979 56.8438 16.375C56.1667 17.0417 55.7708 17.974 55.6562 19.1719ZM76.7188 14.2656V19.1406H76.2031C75.8073 17.6094 75.2969 16.5677 74.6719 16.0156C74.0573 15.4635 73.2708 15.1875 72.3125 15.1875C71.5833 15.1875 70.9948 15.3802 70.5469 15.7656C70.099 16.151 69.875 16.5781 69.875 17.0469C69.875 17.6302 70.0417 18.1302 70.375 18.5469C70.6979 18.974 71.3542 19.4271 72.3438 19.9062L74.625 21.0156C76.7396 22.0469 77.7969 23.4062 77.7969 25.0938C77.7969 26.3958 77.3021 27.4479 76.3125 28.25C75.3333 29.0417 74.2344 29.4375 73.0156 29.4375C72.1406 29.4375 71.1406 29.2812 70.0156 28.9688C69.6719 28.8646 69.3906 28.8125 69.1719 28.8125C68.9323 28.8125 68.7448 28.9479 68.6094 29.2188H68.0938V24.1094H68.6094C68.901 25.5677 69.4583 26.6667 70.2812 27.4062C71.1042 28.1458 72.026 28.5156 73.0469 28.5156C73.7656 28.5156 74.349 28.3073 74.7969 27.8906C75.2552 27.4635 75.4844 26.9531 75.4844 26.3594C75.4844 25.6406 75.2292 25.0365 74.7188 24.5469C74.2188 24.0573 73.2135 23.4375 71.7031 22.6875C70.1927 21.9375 69.2031 21.2604 68.7344 20.6562C68.2656 20.0625 68.0312 19.3125 68.0312 18.4062C68.0312 17.2292 68.4323 16.2448 69.2344 15.4531C70.0469 14.6615 71.0938 14.2656 72.375 14.2656C72.9375 14.2656 73.6198 14.3854 74.4219 14.625C74.9531 14.7812 75.3073 14.8594 75.4844 14.8594C75.651 14.8594 75.7812 14.8229 75.875 14.75C75.9688 14.6771 76.0781 14.5156 76.2031 14.2656H76.7188ZM86.5156 7.8125H92.2656L105.219 23.7031V11.4844C105.219 10.1823 105.073 9.36979 104.781 9.04688C104.396 8.60938 103.786 8.39062 102.953 8.39062H102.219V7.8125H109.594V8.39062H108.844C107.948 8.39062 107.312 8.66146 106.938 9.20312C106.708 9.53646 106.594 10.2969 106.594 11.4844V29.3438H106.031L92.0625 12.2812V25.3281C92.0625 26.6302 92.2031 27.4427 92.4844 27.7656C92.8802 28.2031 93.4896 28.4219 94.3125 28.4219H95.0625V29H87.6875V28.4219H88.4219C89.3281 28.4219 89.9688 28.151 90.3438 27.6094C90.5729 27.276 90.6875 26.5156 90.6875 25.3281V10.5938C90.0729 9.875 89.6042 9.40104 89.2812 9.17188C88.9688 8.94271 88.5052 8.72917 87.8906 8.53125C87.5885 8.4375 87.1302 8.39062 86.5156 8.39062V7.8125ZM113.469 20.0781C113.458 22.2031 113.974 23.8698 115.016 25.0781C116.057 26.2865 117.281 26.8906 118.688 26.8906C119.625 26.8906 120.438 26.6354 121.125 26.125C121.823 25.6042 122.406 24.7188 122.875 23.4688L123.359 23.7812C123.141 25.2083 122.505 26.5104 121.453 27.6875C120.401 28.8542 119.083 29.4375 117.5 29.4375C115.781 29.4375 114.307 28.7708 113.078 27.4375C111.859 26.0938 111.25 24.2917 111.25 22.0312C111.25 19.5833 111.875 17.6771 113.125 16.3125C114.385 14.9375 115.964 14.25 117.859 14.25C119.464 14.25 120.781 14.7812 121.812 15.8438C122.844 16.8958 123.359 18.3073 123.359 20.0781H113.469ZM113.469 19.1719H120.094C120.042 18.2552 119.932 17.6094 119.766 17.2344C119.505 16.651 119.115 16.1927 118.594 15.8594C118.083 15.526 117.547 15.3594 116.984 15.3594C116.12 15.3594 115.344 15.6979 114.656 16.375C113.979 17.0417 113.583 17.974 113.469 19.1719ZM124.484 14.6875H130.484V15.2656C129.932 15.3073 129.568 15.4062 129.391 15.5625C129.224 15.7188 129.141 15.9427 129.141 16.2344C129.141 16.5573 129.229 16.9479 129.406 17.4062L132.469 25.6406L135.547 18.9375L134.734 16.8281C134.484 16.2031 134.156 15.7708 133.75 15.5312C133.521 15.3854 133.094 15.2969 132.469 15.2656V14.6875H139.281V15.2656C138.531 15.2969 138 15.4323 137.688 15.6719C137.479 15.8385 137.375 16.1042 137.375 16.4688C137.375 16.6771 137.417 16.8906 137.5 17.1094L140.75 25.3281L143.766 17.4062C143.974 16.8438 144.078 16.3958 144.078 16.0625C144.078 15.8646 143.974 15.6875 143.766 15.5312C143.568 15.375 143.172 15.2865 142.578 15.2656V14.6875H147.094V15.2656C146.188 15.401 145.521 16.0156 145.094 17.1094L140.312 29.4375H139.672L136.094 20.2969L131.922 29.4375H131.344L126.75 17.4062C126.448 16.6458 126.151 16.1354 125.859 15.875C125.568 15.6042 125.109 15.401 124.484 15.2656V14.6875Z" fill="#494949"/>
</svg>
